REM DIRINDEX 1\2,1\3,1\4,1\5
REM DIRNAME "folder01","folder02","folder03","folder04","folder05"
TITLE ""
FILE "1Q_t_0088-0100.mp3" MP3
  TRACK 01 AUDIO
    TITLE "3:cjc172_1173"
    INDEX 01 00:00:00
  TRACK 02 AUDIO
    TITLE "0:"
    INDEX 01 00:01:18
  TRACK 03 AUDIO
    TITLE "4:cjc172_1174"
    INDEX 01 00:01:33
  TRACK 04 AUDIO
    TITLE "0:"
    INDEX 01 00:02:62
  TRACK 05 AUDIO
    TITLE "5:cjc172_1175"
    INDEX 01 00:03:01
  TRACK 06 AUDIO
    TITLE "0:"
    INDEX 01 00:07:16
  TRACK 07 AUDIO
    TITLE "3:cjc172_1176"
    INDEX 01 00:07:75
  TRACK 08 AUDIO
    TITLE "0:"
    INDEX 01 00:09:13
  TRACK 09 AUDIO
    TITLE "4:cjc172_1177"
    INDEX 01 00:09:29
  TRACK 10 AUDIO
    TITLE "0:"
    INDEX 01 00:12:12
  TRACK 11 AUDIO
    TITLE "5:cjc172_1178"
    INDEX 01 00:12:25
  TRACK 12 AUDIO
    TITLE "0:"
    INDEX 01 00:17:07
  TRACK 13 AUDIO
    TITLE "3:cjc172_1179"
    INDEX 01 00:17:60
  TRACK 14 AUDIO
    TITLE "0:"
    INDEX 01 00:18:71
  TRACK 15 AUDIO
    TITLE "4:cjc172_1180"
    INDEX 01 00:19:12
  TRACK 16 AUDIO
    TITLE "0:"
    INDEX 01 00:20:27
  TRACK 17 AUDIO
    TITLE "5:cjc172_1181"
    INDEX 01 00:20:42
  TRACK 18 AUDIO
    TITLE "0:"
    INDEX 01 00:25:16
  TRACK 19 AUDIO
    TITLE "3:cjc172_1182"
    INDEX 01 00:25:69
  TRACK 20 AUDIO
    TITLE "0:"
    INDEX 01 00:27:13
  TRACK 21 AUDIO
    TITLE "4:cjc172_1183"
    INDEX 01 00:27:29
  TRACK 22 AUDIO
    TITLE "0:"
    INDEX 01 00:28:44
  TRACK 23 AUDIO
    TITLE "5:cjc172_1184"
    INDEX 01 00:28:60
  TRACK 24 AUDIO
    TITLE "0:"
    INDEX 01 00:34:07
  TRACK 25 AUDIO
    TITLE "3:cjc172_1185"
    INDEX 01 00:34:60
  TRACK 26 AUDIO
    TITLE "0:"
    INDEX 01 00:36:10
  TRACK 27 AUDIO
    TITLE "4:cjc172_1186"
    INDEX 01 00:36:26
  TRACK 28 AUDIO
    TITLE "0:"
    INDEX 01 00:37:72
  TRACK 29 AUDIO
    TITLE "5:cjc172_1187"
    INDEX 01 00:38:11
  TRACK 30 AUDIO
    TITLE "0:"
    INDEX 01 00:42:58
  TRACK 31 AUDIO
    TITLE "3:cjc172_1188"
    INDEX 01 00:43:34
  TRACK 32 AUDIO
    TITLE "0:"
    INDEX 01 00:44:57
  TRACK 33 AUDIO
    TITLE "4:cjc172_1189"
    INDEX 01 00:44:72
  TRACK 34 AUDIO
    TITLE "0:"
    INDEX 01 00:48:66
  TRACK 35 AUDIO
    TITLE "5:cjc172_1190"
    INDEX 01 00:49:05
  TRACK 36 AUDIO
    TITLE "0:"
    INDEX 01 00:56:38
  TRACK 37 AUDIO
    TITLE "3:cjc172_1191"
    INDEX 01 00:57:18
  TRACK 38 AUDIO
    TITLE "0:"
    INDEX 01 00:58:29
  TRACK 39 AUDIO
    TITLE "4:cjc172_1192"
    INDEX 01 00:58:45
  TRACK 40 AUDIO
    TITLE "0:"
    INDEX 01 01:01:33
  TRACK 41 AUDIO
    TITLE "5:cjc172_1193"
    INDEX 01 01:01:49
  TRACK 42 AUDIO
    TITLE "0:"
    INDEX 01 01:09:55
  TRACK 43 AUDIO
    TITLE "3:cjc172_1194"
    INDEX 01 01:10:31
  TRACK 44 AUDIO
    TITLE "0:"
    INDEX 01 01:11:34
  TRACK 45 AUDIO
    TITLE "4:cjc172_1195"
    INDEX 01 01:11:55
  TRACK 46 AUDIO
    TITLE "0:"
    INDEX 01 01:12:72
  TRACK 47 AUDIO
    TITLE "5:cjc172_1196"
    INDEX 01 01:13:11
  TRACK 48 AUDIO
    TITLE "0:"
    INDEX 01 01:18:20
  TRACK 49 AUDIO
    TITLE "3:cjc172_1197"
    INDEX 01 01:18:73
  TRACK 50 AUDIO
    TITLE "0:"
    INDEX 01 01:20:23
  TRACK 51 AUDIO
    TITLE "4:cjc172_1198"
    INDEX 01 01:20:49
  TRACK 52 AUDIO
    TITLE "0:"
    INDEX 01 01:23:43
  TRACK 53 AUDIO
    TITLE "5:cjc172_1199"
    INDEX 01 01:23:57
  TRACK 54 AUDIO
    TITLE "0:"
    INDEX 01 01:29:71
  TRACK 55 AUDIO
    TITLE "3:cjc172_1200"
    INDEX 01 01:30:49
  TRACK 56 AUDIO
    TITLE "0:"
    INDEX 01 01:31:72
  TRACK 57 AUDIO
    TITLE "4:cjc172_1201"
    INDEX 01 01:32:12
  TRACK 58 AUDIO
    TITLE "0:"
    INDEX 01 01:34:37
  TRACK 59 AUDIO
    TITLE "5:cjc172_1202"
    INDEX 01 01:34:54
  TRACK 60 AUDIO
    TITLE "0:"
    INDEX 01 01:39:40
  TRACK 61 AUDIO
    TITLE "2:cjc172_1203"
    INDEX 01 01:40:18
  TRACK 62 AUDIO
    TITLE "0:"
    INDEX 01 01:41:21
  TRACK 63 AUDIO
    TITLE "3:cjc172_1204"
    INDEX 01 01:42:01
  TRACK 64 AUDIO
    TITLE "0:"
    INDEX 01 01:43:14
  TRACK 65 AUDIO
    TITLE "4:cjc172_1205"
    INDEX 01 01:43:34
  TRACK 66 AUDIO
    TITLE "0:"
    INDEX 01 01:45:01
  TRACK 67 AUDIO
    TITLE "5:cjc172_1206"
    INDEX 01 01:45:19
  TRACK 68 AUDIO
    TITLE "0:"
    INDEX 01 01:49:05
  TRACK 69 AUDIO
    TITLE "3:cjc172_1207"
    INDEX 01 01:49:60
  TRACK 70 AUDIO
    TITLE "0:"
    INDEX 01 01:50:69
  TRACK 71 AUDIO
    TITLE "4:cjc172_1208"
    INDEX 01 01:51:12
  TRACK 72 AUDIO
    TITLE "0:"
    INDEX 01 01:52:25
  TRACK 73 AUDIO
    TITLE "5:cjc172_1209"
    INDEX 01 01:52:39
  TRACK 74 AUDIO
    TITLE "0:"
    INDEX 01 01:57:16
  TRACK 75 AUDIO
    TITLE "3:cjc172_1210"
    INDEX 01 01:57:73
  TRACK 76 AUDIO
    TITLE "0:"
    INDEX 01 01:59:09
  TRACK 77 AUDIO
    TITLE "4:cjc172_1211"
    INDEX 01 01:59:29
  TRACK 78 AUDIO
    TITLE "0:"
    INDEX 01 02:00:54
  TRACK 79 AUDIO
    TITLE "5:cjc172_1212"
    INDEX 01 02:00:68
  TRACK 80 AUDIO
    TITLE "0:"
    INDEX 01 02:05:30
